<svg width="27" height="27" viewBox="0 0 27 27" fill="none" xmlns="http://www.w3.org/2000/svg">
<path d="M6.43461 15.7762L6.4346 15.7762C6.42153 15.7893 6.40805 15.8027 6.39423 15.8164C6.24206 15.9676 6.04945 16.1591 5.91256 16.4009L6.77597 16.8897L5.91256 16.4009C5.77568 16.6426 5.71061 16.9063 5.65921 17.1146C5.65454 17.1335 5.64999 17.152 5.6455 17.1699L4.85697 20.324C4.85417 20.3352 4.85125 20.3468 4.84823 20.3589C4.81141 20.5053 4.7604 20.7083 4.74283 20.8879C4.72262 21.0946 4.71593 21.5465 5.08471 21.9153C5.45349 22.2841 5.90545 22.2774 6.11214 22.2572C6.29175 22.2396 6.49467 22.1886 6.64115 22.1518C6.65316 22.1488 6.66478 22.1458 6.67599 22.143L9.83011 21.3545C9.84805 21.35 9.8665 21.3455 9.88541 21.3408C10.0937 21.2894 10.3574 21.2243 10.5991 21.0874L10.1064 20.2172L10.5992 21.0874C10.8409 20.9505 11.0324 20.7579 11.1836 20.6058C11.1973 20.5919 11.2107 20.5785 11.2238 20.5654L19.5429 12.2463C19.5557 12.2335 19.5686 12.2207 19.5814 12.2079C19.8813 11.9081 20.1728 11.6167 20.3808 11.344C20.6153 11.0366 20.8358 10.6387 20.8358 10.125C20.8358 9.61133 20.6153 9.21338 20.3808 8.90598C20.1728 8.63331 19.8813 8.34195 19.5814 8.04214C19.5686 8.02933 19.5557 8.01651 19.5429 8.00368L18.9963 7.45711L18.2892 8.16421L18.9963 7.45711C18.9835 7.44426 18.9706 7.43143 18.9578 7.41861C18.658 7.1187 18.3667 6.82723 18.094 6.61919C17.7866 6.38466 17.3887 6.16421 16.875 6.16421C16.3613 6.16421 15.9634 6.38466 15.656 6.61919C15.3833 6.82723 15.0919 7.11871 14.7921 7.41863C14.7793 7.43145 14.7665 7.44427 14.7537 7.45711L6.43461 15.7762Z" stroke="black" stroke-width="2"/>
<path d="M14.0625 8.4375L17.4375 6.1875L20.8125 9.5625L18.5625 12.9375L14.0625 8.4375Z" fill="black"/>
</svg>
