<svg width="150" height="150" viewBox="0 0 150 150" fill="none" xmlns="http://www.w3.org/2000/svg">
<path d="M91.989 0H58.0111C25.9724 0 0 25.9724 0 58.0111V141.713C0 146.289 3.71064 150 8.28729 150H91.989C124.028 150 150 124.028 150 91.989V58.0111C150 25.9724 124.028 0 91.989 0ZM84.7065 51.9261C88.0483 51.9261 90.7583 55.8191 90.7583 60.6195C90.7583 65.4199 88.0483 69.3128 84.7065 69.3128C81.3646 69.3128 78.6547 65.4199 78.6547 60.6195C78.6547 55.8191 81.3646 51.9261 84.7065 51.9261ZM62.0366 51.9261C65.3785 51.9261 68.0884 55.8191 68.0884 60.6195C68.0884 65.4199 65.3785 69.3128 62.0366 69.3128C58.6948 69.3128 55.9848 65.4199 55.9848 60.6195C55.9848 55.8191 58.6948 51.9261 62.0366 51.9261ZM73.5041 109.877C51.4709 109.877 33.3738 89.8521 31.8776 64.5843C31.767 62.7167 33.2942 61.1954 35.1651 61.1954V61.1954C37.0359 61.1954 38.5402 62.7168 38.6678 64.5833C40.124 85.8924 55.1924 102.704 73.5041 102.704C91.8159 102.704 106.884 85.8924 108.341 64.5833C108.468 62.7168 109.972 61.1954 111.843 61.1954V61.1954C113.714 61.1954 115.241 62.7167 115.131 64.5843C113.634 89.8521 95.5354 109.877 73.5041 109.877ZM114.323 88.9745C113.954 88.983 113.589 88.9757 113.227 88.9535C111.11 88.8236 110.242 86.4274 111.146 84.5087C111.304 84.1722 111.459 83.8332 111.611 83.492C112.043 82.5229 113.103 82.0456 114.164 82.0214V82.0214C117.999 81.9344 121.046 78.7438 120.957 74.9109C120.909 72.8315 119.945 70.9975 118.461 69.7647C117.14 68.6669 115.996 67.1505 116.123 65.4376V65.4376C116.28 63.3201 118.216 61.6624 120.122 62.5983C124.63 64.8123 127.787 69.3924 127.91 74.7514C128.084 82.4192 121.989 88.7983 114.321 88.9745H114.323Z" fill="white"/>
</svg>
