<svg width="20" height="21" viewBox="0 0 20 21" fill="none" xmlns="http://www.w3.org/2000/svg">
<path d="M9.25 1.5V0.75C9.25 0.551088 9.32902 0.360322 9.46967 0.21967C9.61032 0.0790176 9.80109 0 10 0C10.1989 0 10.3897 0.0790176 10.5303 0.21967C10.671 0.360322 10.75 0.551088 10.75 0.75V1.5C10.75 1.69891 10.671 1.88968 10.5303 2.03033C10.3897 2.17098 10.1989 2.25 10 2.25C9.80109 2.25 9.61032 2.17098 9.46967 2.03033C9.32902 1.88968 9.25 1.69891 9.25 1.5ZM16.75 4.5C16.8485 4.50008 16.9461 4.48074 17.0371 4.4431C17.1282 4.40546 17.2109 4.35025 17.2806 4.28062L18.0306 3.53062C18.1714 3.38989 18.2504 3.19902 18.2504 3C18.2504 2.80098 18.1714 2.61011 18.0306 2.46938C17.8899 2.32864 17.699 2.24958 17.5 2.24958C17.301 2.24958 17.1101 2.32864 16.9694 2.46938L16.2194 3.21938C16.1144 3.32427 16.0428 3.45796 16.0139 3.60352C15.9849 3.74908 15.9997 3.89998 16.0565 4.03709C16.1133 4.17421 16.2096 4.29139 16.333 4.37379C16.4565 4.45619 16.6016 4.50012 16.75 4.5ZM2.71938 4.28062C2.86011 4.42136 3.05098 4.50042 3.25 4.50042C3.44902 4.50042 3.63989 4.42136 3.78062 4.28062C3.92136 4.13989 4.00042 3.94902 4.00042 3.75C4.00042 3.55098 3.92136 3.36011 3.78062 3.21938L3.03062 2.46938C2.88989 2.32864 2.69902 2.24958 2.5 2.24958C2.30098 2.24958 2.11011 2.32864 1.96938 2.46938C1.82864 2.61011 1.74958 2.80098 1.74958 3C1.74958 3.19902 1.82864 3.38989 1.96938 3.53062L2.71938 4.28062ZM10.8756 6.76031C10.7781 6.74306 10.678 6.74531 10.5814 6.76693C10.4847 6.78855 10.3932 6.82911 10.3123 6.88627C10.2314 6.94343 10.1626 7.01606 10.1099 7.09997C10.0572 7.18387 10.0216 7.27738 10.0053 7.3751C9.98895 7.47282 9.99212 7.57281 10.0146 7.66929C10.0372 7.76577 10.0786 7.85684 10.1365 7.93723C10.1944 8.01762 10.2676 8.08574 10.352 8.13765C10.4364 8.18957 10.5303 8.22425 10.6281 8.23969C12.4066 8.53875 13.75 10.155 13.75 12C13.75 12.1989 13.829 12.3897 13.9697 12.5303C14.1103 12.671 14.3011 12.75 14.5 12.75C14.6989 12.75 14.8897 12.671 15.0303 12.5303C15.171 12.3897 15.25 12.1989 15.25 12C15.25 9.43125 13.3684 7.17844 10.8738 6.76031H10.8756ZM19.75 16.5V18.75C19.75 19.1478 19.592 19.5294 19.3107 19.8107C19.0294 20.092 18.6478 20.25 18.25 20.25H1.75C1.35218 20.25 0.970644 20.092 0.68934 19.8107C0.408035 19.5294 0.25 19.1478 0.25 18.75V16.5C0.25 16.1022 0.408035 15.7206 0.68934 15.4393C0.970644 15.158 1.35218 15 1.75 15V12C1.74997 10.9113 1.96542 9.83334 2.38395 8.82829C2.80247 7.82323 3.41579 6.91096 4.18853 6.14405C4.96128 5.37714 5.87818 4.77076 6.88638 4.35987C7.89458 3.94898 8.97413 3.74171 10.0628 3.75C14.5769 3.78375 18.25 7.52719 18.25 12.0938V15C18.6478 15 19.0294 15.158 19.3107 15.4393C19.592 15.7206 19.75 16.1022 19.75 16.5ZM3.25 15H16.75V12.0938C16.75 8.34375 13.7453 5.27719 10.0516 5.25H10C8.20979 5.25 6.4929 5.96116 5.22703 7.22703C3.96116 8.4929 3.25 10.2098 3.25 12V15ZM18.25 18.75V16.5H1.75V18.75H18.25Z" fill="black"/>
</svg>
