<svg width="44" height="44" viewBox="0 0 44 44" fill="none" xmlns="http://www.w3.org/2000/svg">
<g clip-path="url(#clip0_1683_1171)">
<path d="M22 41.25C16.8946 41.25 11.9983 39.2219 8.38819 35.6118C4.77812 32.0017 2.75 27.1054 2.75 22C2.75 16.8946 4.77812 11.9983 8.38819 8.38819C11.9983 4.77812 16.8946 2.75 22 2.75C27.1054 2.75 32.0017 4.77812 35.6118 8.38819C39.2219 11.9983 41.25 16.8946 41.25 22C41.25 27.1054 39.2219 32.0017 35.6118 35.6118C32.0017 39.2219 27.1054 41.25 22 41.25ZM22 44C27.8348 44 33.4305 41.6822 37.5564 37.5564C41.6822 33.4305 44 27.8348 44 22C44 16.1652 41.6822 10.5695 37.5564 6.44365C33.4305 2.31785 27.8348 0 22 0C16.1652 0 10.5695 2.31785 6.44365 6.44365C2.31785 10.5695 0 16.1652 0 22C0 27.8348 2.31785 33.4305 6.44365 37.5564C10.5695 41.6822 16.1652 44 22 44Z" fill="#979C9E"/>
<path d="M18.7852 31.4325C19.8051 31.012 20.8969 30.7935 22 30.789C24.519 30.789 26.4193 31.911 28.1875 33.0605C28.7705 33.44 29.3535 32.8708 28.963 32.2987C27.412 30.0163 24.6785 26.664 22 26.664C20.5425 26.664 19.0685 27.6568 17.776 28.93C18.007 29.425 18.2197 29.9154 18.414 30.4013C18.5405 30.7203 18.6642 31.0622 18.7852 31.427V31.4325ZM16.5 31.1658C16.5 33.6958 14.652 35.75 12.375 35.75C10.098 35.75 8.25 33.6985 8.25 31.1658C8.25 29.2243 10.6755 24.8683 11.8085 22.9433C11.866 22.8439 11.9486 22.7614 12.048 22.7041C12.1475 22.6467 12.2602 22.6165 12.375 22.6165C12.4898 22.6165 12.6025 22.6467 12.702 22.7041C12.8014 22.7614 12.884 22.8439 12.9415 22.9433C14.0745 24.8683 16.5 29.2243 16.5 31.1658ZM19.25 17.875C19.25 20.152 18.018 22 16.5 22C14.982 22 13.75 20.152 13.75 17.875C13.75 15.598 14.982 13.75 16.5 13.75C18.018 13.75 19.25 15.598 19.25 17.875ZM30.25 17.875C30.25 20.152 29.018 22 27.5 22C25.982 22 24.75 20.152 24.75 17.875C24.75 15.598 25.982 13.75 27.5 13.75C29.018 13.75 30.25 15.598 30.25 17.875ZM26.125 9.625C26.125 9.26033 26.2699 8.91059 26.5277 8.65273C26.7856 8.39487 27.1353 8.25 27.5 8.25C30.6955 8.25 33.9625 9.856 35.6042 13.134C35.6868 13.2956 35.7366 13.4719 35.7506 13.6529C35.7647 13.8338 35.7428 14.0157 35.6863 14.1881C35.6297 14.3605 35.5396 14.5201 35.4211 14.6575C35.3026 14.7949 35.158 14.9075 34.9958 14.9888C34.8336 15.0701 34.6568 15.1185 34.4758 15.1312C34.2948 15.1438 34.1131 15.1206 33.9411 15.0627C33.7691 15.0048 33.6103 14.9134 33.4738 14.7938C33.3373 14.6743 33.2258 14.5289 33.1458 14.366C32.0348 12.144 29.8045 11 27.5 11C27.1353 11 26.7856 10.8551 26.5277 10.5973C26.2699 10.3394 26.125 9.98967 26.125 9.625ZM19.25 9.625C19.25 9.26033 19.1051 8.91059 18.8473 8.65273C18.5894 8.39487 18.2397 8.25 17.875 8.25C14.6795 8.25 11.4125 9.856 9.77075 13.134C9.6882 13.2956 9.63845 13.4719 9.62437 13.6529C9.61029 13.8338 9.63217 14.0157 9.68873 14.1881C9.74529 14.3605 9.83543 14.5201 9.95393 14.6575C10.0724 14.7949 10.217 14.9075 10.3792 14.9888C10.5414 15.0701 10.7182 15.1185 10.8992 15.1312C11.0802 15.1438 11.2619 15.1206 11.4339 15.0627C11.6059 15.0048 11.7647 14.9134 11.9012 14.7938C12.0377 14.6743 12.1492 14.5289 12.2292 14.366C13.3403 12.144 15.5705 11 17.875 11C18.2397 11 18.5894 10.8551 18.8473 10.5973C19.1051 10.3394 19.25 9.98967 19.25 9.625Z" fill="#979C9E"/>
</g>
<defs>
<clipPath id="clip0_1683_1171">
<rect width="44" height="44" fill="white"/>
</clipPath>
</defs>
</svg>
