<svg width="40" height="24" viewBox="0 0 40 24" fill="none" xmlns="http://www.w3.org/2000/svg">
<path d="M17.3529 21.0323C9.74228 21.0323 3.47586 14.0768 2.86815 5.24188C2.81471 4.46503 2.18861 3.83179 1.40993 3.83179C0.631245 3.83179 -0.00443793 4.46499 0.0419547 5.24229C0.666596 15.708 8.18801 23.9999 17.3529 23.9999C26.5178 23.9999 34.0393 15.708 34.6639 5.24229C34.7103 4.46499 34.0746 3.83179 33.2959 3.83179C32.5172 3.83179 31.8911 4.46502 31.8376 5.24185C31.2291 14.0648 24.963 21.0323 17.3529 21.0323Z" fill="#FF6F61"/>
<path d="M12.5953 7.2029C13.985 7.2029 15.1115 5.59048 15.1115 3.60145C15.1115 1.61242 13.985 0 12.5953 0C11.2057 0 10.0792 1.61242 10.0792 3.60145C10.0792 5.59048 11.2057 7.2029 12.5953 7.2029Z" fill="#FF6F61"/>
<path d="M22.0238 7.2029C23.4134 7.2029 24.5399 5.59048 24.5399 3.60145C24.5399 1.61242 23.4134 0 22.0238 0C20.6341 0 19.5076 1.61242 19.5076 3.60145C19.5076 5.59048 20.6341 7.2029 22.0238 7.2029Z" fill="#FF6F61"/>
<path d="M36.2242 4.32153C35.7064 4.11939 35.1466 4.49678 35.1183 5.05193C35.1066 5.28117 35.0922 5.50562 35.0749 5.72833C35.0261 6.35342 35.4375 6.91593 35.9416 7.28879C36.6289 7.79718 37.086 8.59536 37.1063 9.50767C37.1497 11.0923 35.8772 12.4176 34.2865 12.4609C33.8453 12.4609 33.3937 12.6697 33.2131 13.0723C33.1463 13.2211 33.0782 13.3691 33.0087 13.5161C32.6383 14.2996 32.9915 15.2728 33.8563 15.3305C34.0174 15.3413 34.1801 15.3452 34.3443 15.342C37.5257 15.27 40.0708 12.6193 39.9985 9.45004C39.9407 6.64091 37.0629 4.52316 36.2242 4.32153Z" fill="#FF6F61"/>
</svg>
