<svg width="34" height="34" viewBox="0 0 34 34" fill="none" xmlns="http://www.w3.org/2000/svg">
<path d="M7.7675 18.1292C7.69637 16.3203 7.6608 15.4158 7.9952 14.6064C8.3296 13.7969 8.99318 13.1813 10.3203 11.9501L11.6077 10.7557C14.0066 8.53021 15.206 7.41747 16.6845 7.35932C18.1631 7.30118 19.4462 8.3163 22.0123 10.3465L23.3896 11.4361C24.8093 12.5593 25.5192 13.121 25.9161 13.9016C26.313 14.6823 26.3486 15.5868 26.4198 17.3957L26.6419 23.0452C26.7407 25.5574 26.7901 26.8135 26.0404 27.6246C25.2906 28.4358 24.0345 28.4852 21.5223 28.584L13.5285 28.8983C11.0162 28.9971 9.76013 29.0465 8.949 28.2968C8.13786 27.547 8.08846 26.2909 7.98967 23.7787L7.7675 18.1292Z" stroke="#979C9E" stroke-width="2"/>
<path d="M20.8558 28.6103L20.5807 21.6157C20.559 21.0638 20.094 20.634 19.5422 20.6557L14.8791 20.8391C14.3273 20.8608 13.8975 21.3258 13.9192 21.8776L14.1942 28.8722" stroke="#979C9E" stroke-width="2" stroke-linecap="round" stroke-linejoin="round"/>
</svg>
